<?xml version="1.0" encoding="UTF-8"?>
<svg id="Camada_1" data-name="Camada 1" xmlns="http://www.w3.org/2000/svg" version="1.1" viewBox="0 0 873 140.25">
  <defs>
    <style>
      .cls-1 {
        fill: #fff;
        stroke-width: 0px;
      }
    </style>
  </defs>
  <path class="cls-1" d="M475,140.25L529.93,0h-15.92l-38.35,98.91L431.41,0l-41.84,98.91-29.2-67.19h0l-2.27-5.59c-7.17-17.08-13.68-26.14-38.49-26.14h-5.22v14.11h5.22c12.55,0,18.52,3.32,23.51,15.01l3.15,7.73h0l42.25,103.4,43.81-100.6,42.67,100.6Z"/>
  <path class="cls-1" d="M725.92,101.68v-.39c0-20.84-14.03-31.94-44.41-38.57-30-6.43-37.01-13.63-37.01-26.49v-.39c0-12.27,11.3-22.01,29.02-22.01,14.02,0,26.69,4.48,39.35,14.8l8.96-11.88c-13.83-11.1-28.05-16.75-47.92-16.75-25.91,0-44.8,15.78-44.8,37.2v.39c0,22.4,14.41,32.53,45.78,39.35,28.63,6.04,35.45,13.25,35.45,25.91v.39c0,13.44-12.08,23.18-30.39,23.18s-32.53-6.43-46.75-19.29l-9.54,11.3c16.36,14.61,34.09,21.82,55.71,21.82,27.08,0,46.56-15.19,46.56-38.57"/>
  <polygon class="cls-1" points="873 140.25 873 0 857.85 0 857.85 62.64 780.38 62.64 780.38 0 765.23 0 765.23 140.25 780.38 140.25 780.38 76.83 857.85 76.83 857.85 140.25 873 140.25"/>
  <rect class="cls-1" x="569.24" width="15.15" height="140.25"/>
  <path class="cls-1" d="M38.73,94.92c-3.58,1.57-7.59,2.36-12.04,2.36-4.15,0-7.86-.7-11.14-2.1-3.28-1.4-6.07-3.32-8.4-5.77-2.32-2.45-4.1-5.32-5.32-8.62-1.23-3.3-1.84-6.82-1.84-10.57s.64-7.05,1.91-10.35c1.27-3.3,3.06-6.2,5.36-8.7,2.3-2.5,5.06-4.49,8.29-5.96,3.22-1.47,6.81-2.21,10.76-2.21,2.2,0,4.21.15,6.04.45,1.82.3,3.52.75,5.1,1.35s3.05,1.34,4.42,2.21c1.37.88,2.71,1.86,4.01,2.96l-3.82,4.5c-1-.9-2.05-1.71-3.15-2.44-1.1-.72-2.29-1.35-3.56-1.87-1.27-.53-2.68-.94-4.2-1.24-1.53-.3-3.21-.45-5.06-.45-2.9,0-5.58.58-8.02,1.73-2.45,1.15-4.55,2.7-6.3,4.66-1.75,1.95-3.12,4.24-4.12,6.87-1,2.63-1.5,5.42-1.5,8.38,0,3.16.49,6.07,1.46,8.75.97,2.68,2.36,5,4.16,6.95,1.8,1.95,3.97,3.48,6.52,4.58,2.55,1.1,5.42,1.65,8.62,1.65,3,0,5.82-.51,8.47-1.54,2.65-1.03,4.87-2.27,6.67-3.73v-13.1h-15.97v-5.25h21.67v20.87c-2.45,2.19-5.46,4.08-9.04,5.65Z"/>
  <path class="cls-1" d="M98.55,97.27l-16.51-22.2h-15v22.2h-5.92v-54.29h22.57c2.9,0,5.51.38,7.84,1.13,2.32.75,4.31,1.81,5.96,3.19,1.65,1.38,2.92,3.03,3.82,4.95.9,1.93,1.35,4.06,1.35,6.42,0,2.2-.35,4.16-1.05,5.89-.7,1.73-1.69,3.23-2.96,4.5-1.27,1.28-2.79,2.34-4.54,3.19-1.75.85-3.65,1.45-5.7,1.8l17.41,23.23h-7.27ZM93.21,51.2c-2.36-1.83-5.66-2.75-9.92-2.75h-16.24v21.37h16.16c1.95,0,3.76-.25,5.41-.75,1.65-.5,3.08-1.22,4.29-2.15,1.2-.93,2.14-2.07,2.82-3.42.68-1.35,1.01-2.88,1.01-4.59,0-3.31-1.18-5.88-3.53-7.71Z"/>
  <path class="cls-1" d="M159.78,74.02c0,3.85-.53,7.22-1.57,10.12-1.05,2.9-2.54,5.32-4.46,7.27-1.93,1.95-4.23,3.41-6.9,4.39-2.68.97-5.66,1.46-8.96,1.46s-6.21-.49-8.89-1.46c-2.68-.97-4.98-2.42-6.9-4.35-1.93-1.92-3.41-4.31-4.46-7.16s-1.57-6.12-1.57-9.82v-31.5h5.92v31.12c0,5.7,1.41,10.07,4.24,13.12,2.82,3.05,6.76,4.57,11.81,4.57s8.7-1.45,11.55-4.35c2.85-2.9,4.27-7.22,4.27-12.97v-31.5h5.92v31.05Z"/>
  <path class="cls-1" d="M210.77,67.2c-1.1,2.15-2.59,3.95-4.46,5.4-1.87,1.45-4.06,2.54-6.56,3.26-2.5.73-5.15,1.09-7.95,1.09h-12.75v20.32h-5.92v-54.29h19.65c2.95,0,5.64.39,8.06,1.16,2.42.78,4.5,1.87,6.22,3.3,1.72,1.42,3.05,3.18,3.97,5.25.92,2.08,1.39,4.41,1.39,7.01,0,2.85-.55,5.35-1.65,7.5ZM202.62,51.34c-2.58-1.92-6-2.89-10.26-2.89h-13.31v23.1h13.01c2.16,0,4.12-.27,5.9-.82,1.78-.55,3.31-1.34,4.59-2.36,1.28-1.02,2.26-2.25,2.93-3.67.68-1.42,1.02-3.01,1.02-4.76,0-3.8-1.29-6.66-3.87-8.59Z"/>
  <path class="cls-1" d="M277.36,80.44c-1.3,3.28-3.13,6.16-5.47,8.66-2.35,2.5-5.17,4.49-8.47,5.96-3.3,1.47-6.95,2.21-10.95,2.21s-7.64-.73-10.91-2.17c-3.27-1.45-6.09-3.41-8.44-5.89-2.35-2.47-4.16-5.35-5.44-8.62-1.27-3.27-1.91-6.74-1.91-10.39s.65-7.11,1.95-10.39c1.3-3.27,3.12-6.16,5.47-8.66,2.35-2.5,5.17-4.49,8.47-5.96,3.3-1.47,6.95-2.21,10.95-2.21s7.64.73,10.91,2.17c3.27,1.45,6.09,3.41,8.44,5.89,2.35,2.47,4.16,5.35,5.44,8.62,1.27,3.27,1.91,6.74,1.91,10.39s-.65,7.11-1.95,10.39ZM271.63,61.73c-1.03-2.65-2.46-4.95-4.31-6.9-1.85-1.95-4.04-3.5-6.56-4.65-2.53-1.15-5.29-1.72-8.29-1.72s-5.76.56-8.29,1.69c-2.53,1.12-4.69,2.66-6.49,4.61-1.8,1.95-3.21,4.24-4.24,6.86-1.03,2.62-1.54,5.44-1.54,8.44s.51,5.82,1.54,8.47c1.02,2.65,2.46,4.95,4.31,6.9,1.85,1.95,4.04,3.5,6.56,4.65,2.52,1.15,5.29,1.72,8.29,1.72s5.76-.56,8.29-1.69c2.52-1.12,4.69-2.66,6.49-4.61,1.8-1.95,3.21-4.24,4.24-6.86,1.02-2.62,1.54-5.44,1.54-8.44s-.51-5.82-1.54-8.47Z"/>
</svg>